<svg width="1080" height="171" viewBox="0 0 1080 171" fill="none" xmlns="http://www.w3.org/2000/svg">
<path d="M1078.48 41.2679C1078.87 45.9872 1075.68 51.0189 1068.92 56.2874C1062.18 61.5374 1052.01 66.9215 1038.74 72.3546C1012.21 83.218 973.416 94.2317 925.19 104.767C828.746 125.837 694.675 144.978 545.842 157.193C397.008 169.407 261.611 172.381 163.022 167.318C113.724 164.785 73.6494 160.245 45.7058 153.852C31.7304 150.654 20.8195 147 13.3121 142.92C5.77816 138.825 1.8132 134.38 1.42589 129.661C1.03858 124.941 4.22582 119.91 10.9913 114.641C17.733 109.391 27.9021 104.007 41.1692 98.5739C67.6967 87.7105 106.495 76.6968 154.72 66.1611C251.165 45.0912 385.235 25.9502 534.069 13.7357C682.902 1.5211 818.299 -1.45271 916.888 3.61096C966.186 6.14298 1006.26 10.6838 1034.2 17.0768C1048.18 20.2741 1059.09 23.9282 1066.6 28.0088C1074.13 32.1037 1078.1 36.5485 1078.48 41.2679Z" stroke="#BBBBBB" stroke-opacity="0.8"/>
</svg>
