<svg width="577" height="141" viewBox="0 0 577 141" fill="none" xmlns="http://www.w3.org/2000/svg">
<path d="M296.51 27.3969C375.93 42.5555 446.894 61.1351 497.421 78.9163C522.689 87.8081 542.825 96.4931 556.35 104.441C563.115 108.417 568.198 112.192 571.443 115.697C574.698 119.215 576.02 122.367 575.493 125.128C574.966 127.889 572.576 130.333 568.254 132.404C563.946 134.468 557.83 136.106 550.076 137.31C534.575 139.718 512.656 140.376 485.889 139.337C432.364 137.258 359.546 128.394 280.126 113.235C200.706 98.0769 129.743 79.4973 79.2148 61.7161C53.9472 52.8242 33.8112 44.1393 20.2867 36.1914C13.5217 32.2159 8.43822 28.4403 5.19375 24.935C1.93814 21.4176 0.616461 18.2651 1.14343 15.5042C1.6704 12.7432 4.0603 10.2991 8.38253 8.22811C12.69 6.1642 18.8067 4.5264 26.5604 3.32197C42.0614 0.914081 63.9807 0.256102 90.7471 1.29576C144.272 3.37477 217.09 12.2383 296.51 27.3969Z" stroke="#BBBBBB" stroke-opacity="0.8"/>
</svg>
