<svg width="577" height="141" viewBox="0 0 577 141" fill="none" xmlns="http://www.w3.org/2000/svg">
<path d="M296.51 27.5664C375.93 42.725 446.894 61.3046 497.421 79.0857C522.689 87.9776 542.825 96.6626 556.35 104.61C563.115 108.586 568.198 112.362 571.443 115.867C574.698 119.384 576.02 122.537 575.493 125.298C574.966 128.059 572.576 130.503 568.254 132.574C563.946 134.638 557.83 136.275 550.076 137.48C534.575 139.888 512.656 140.546 485.889 139.506C432.364 137.427 359.546 128.564 280.126 113.405C200.706 98.2464 129.743 79.6668 79.2148 61.8856C53.9472 52.9937 33.8112 44.3088 20.2867 36.3609C13.5217 32.3853 8.43822 28.6098 5.19375 25.1045C1.93814 21.5871 0.616461 18.4346 1.14343 15.6737C1.6704 12.9127 4.0603 10.4686 8.38253 8.3976C12.69 6.3337 18.8067 4.69589 26.5604 3.49146C42.0614 1.08358 63.9807 0.425597 90.7471 1.46525C144.272 3.54426 217.09 12.4078 296.51 27.5664Z" stroke="#BBBBBB" stroke-opacity="0.8"/>
</svg>
