<svg width="576" height="141" viewBox="0 0 576 141" fill="none" xmlns="http://www.w3.org/2000/svg">
<path d="M296.01 27.9576C375.43 43.1162 446.394 61.6958 496.921 79.477C522.189 88.3689 542.325 97.0538 555.85 105.002C562.615 108.977 567.698 112.753 570.943 116.258C574.198 119.775 575.52 122.928 574.993 125.689C574.466 128.45 572.076 130.894 567.754 132.965C563.446 135.029 557.33 136.667 549.576 137.871C534.075 140.279 512.156 140.937 485.389 139.897C431.864 137.818 359.046 128.955 279.626 113.796C200.206 98.6376 129.243 80.058 78.7148 62.2768C53.4472 53.385 33.3112 44.7 19.7867 36.7521C13.0217 32.7766 7.93822 29.001 4.69375 25.4957C1.43814 21.9784 0.116461 18.8258 0.64343 16.0649C1.1704 13.304 3.5603 10.8598 7.88253 8.78884C12.19 6.72493 18.3067 5.08713 26.0604 3.8827C41.5614 1.47481 63.4807 0.816832 90.2471 1.85649C143.772 3.9355 216.59 12.799 296.01 27.9576Z" stroke="#BBBBBB" stroke-opacity="0.8"/>
</svg>
