<svg width="141" height="107" viewBox="0 0 141 107" fill="none" xmlns="http://www.w3.org/2000/svg">
<path d="M67.1609 1.57025C65.7906 2.41276 62.355 4.48074 59.537 6.16576C56.7191 7.86993 54.1328 9.45921 53.8046 9.70813L53.1677 10.1677V27.4966V44.8063H52.3571C51.9131 44.8063 51.1797 44.634 50.7165 44.4042C49.7707 43.9447 49.1338 44.0213 48.5548 44.634C47.6476 45.6106 47.995 47.1424 49.1724 47.4488C49.8865 47.6402 50.5621 47.4488 51.1604 46.8935C51.4692 46.6063 51.778 46.5297 52.3185 46.568L53.0712 46.6254L53.1291 48.9615L53.187 51.3167H69.9596H86.7514V48.9232V46.5297H87.4463C87.8709 46.5297 88.3534 46.702 88.7587 47.0084C89.5887 47.6402 90.4765 47.6402 91.0942 47.0084C92.1364 45.9935 91.4223 44.1936 89.9747 44.1936C89.5694 44.1936 89.0483 44.3276 88.778 44.5C88.5271 44.6723 87.9674 44.8063 87.5235 44.8063H86.7514V27.4966V10.1677L86.1338 9.70813C85.7864 9.44006 83.7984 8.21459 81.7332 6.96997C79.668 5.7445 76.2517 3.65738 74.1672 2.35532C72.0634 1.0724 70.1912 0.000114441 70.0175 0.000114441C69.8245 0.0192642 68.5506 0.708591 67.1609 1.57025ZM73.0091 5.15092C74.5725 6.08917 77.3712 7.77419 79.2241 8.90392C81.077 10.0336 82.8912 11.1251 83.2387 11.3357L83.8563 11.7187V16.1035V20.4884H82.3122H80.7681V18.88C80.7681 17.7311 80.6909 17.2141 80.4979 17.0609C80.2856 16.8886 79.2434 16.8503 76.6377 16.9269C74.6497 16.9844 72.9512 17.0801 72.8547 17.1375C72.7389 17.195 72.6617 17.9418 72.6617 18.7651C72.6617 19.5885 72.5845 20.3161 72.4687 20.3927C72.1792 20.565 65.7134 16.6205 65.7134 16.2567C65.7134 16.0844 65.9257 15.8546 66.2152 15.7397C66.7556 15.4908 67.2574 14.476 67.2574 13.6526C67.2574 12.3123 65.7713 11.1442 64.3623 11.374C63.2428 11.5463 61.969 13.2122 62.3164 14.0739C62.4515 14.4185 63.3779 14.4568 63.4358 14.1122C63.4358 13.9973 63.4744 13.7866 63.4744 13.6718C63.5709 12.8293 64.9992 12.5229 65.6169 13.2122C66.0222 13.6718 65.8871 14.476 65.3466 14.6483C64.8255 14.8015 64.536 15.2036 64.4781 15.8355C64.4202 16.295 64.0149 16.6014 61.0232 18.4013C58.8422 19.7034 57.356 20.4884 56.8542 20.565L56.0629 20.6799V16.2184V11.7378L60.174 9.26773C62.4129 7.92737 65.308 6.16576 66.6012 5.36155C67.8751 4.57648 69.091 3.82971 69.3033 3.69567C69.4964 3.58078 69.7859 3.4659 69.921 3.4659C70.0754 3.44675 71.4651 4.21267 73.0091 5.15092ZM68.126 19.5502L69.284 20.297H64.9606C62.5866 20.297 60.6951 20.2395 60.753 20.1821C60.8302 20.1055 61.776 19.5119 62.8568 18.8609L64.8448 17.6545L65.9064 18.2481C66.4854 18.5545 67.489 19.1481 68.126 19.5502ZM83.5282 22.7862C83.837 22.7862 83.8563 23.15 83.8563 27.8604V32.9346H82.0227H80.2084L80.1505 31.2496C80.1119 30.3305 80.0347 29.6029 79.9575 29.622C79.861 29.6603 78.2011 29.6795 76.2324 29.6795H72.681L72.6231 31.2496L72.5652 32.8389L71.8511 32.8963L71.1176 32.9538V29.3156V25.6584H70.0561H68.9945V29.2965C68.9945 32.8006 68.9752 32.9346 68.6085 32.9346C68.2418 32.9346 68.2225 32.8006 68.2225 29.2965V25.6392L66.8328 25.6967L65.4238 25.7541L65.3659 29.3348C65.3273 32.7814 65.308 32.9346 64.9413 32.9346C64.5746 32.9346 64.5553 32.8006 64.5553 29.2965V25.6584H63.2042H61.8532V29.4114C61.8532 32.8772 61.8339 33.1452 61.525 33.0878C61.2162 33.0303 61.1776 32.6665 61.1197 29.3348L61.0811 25.6584H59.6335H58.186V29.2773V32.9155L57.3367 33.0303C56.8542 33.1069 56.391 33.1069 56.2752 33.0303C56.1401 32.9538 56.0629 31.2496 56.0629 27.8413V22.7862L69.2261 22.7287C76.4833 22.7096 82.5824 22.7096 82.7947 22.7287C83.007 22.767 83.3352 22.7862 83.5282 22.7862ZM83.8177 39.9619L83.8563 44.8063H79.7259H75.5762L75.5183 43.3128L75.4604 41.8384L70.0175 41.781L64.5746 41.7427L64.5167 43.2171L64.4588 44.7106L60.2705 44.768L56.0629 44.8063V39.9236V35.0409L69.921 35.0792L83.7598 35.1366L83.8177 39.9619ZM83.8563 48.0615V49.5933L70.0175 49.555L56.1594 49.4976L56.1015 48.2721C56.0629 47.6019 56.0822 46.9318 56.1401 46.7977C56.2173 46.568 58.6106 46.5297 70.0561 46.5297H83.8563V48.0615Z" fill="black"/>
<path d="M73.4725 14.897C72.6618 14.9544 72.6425 14.9736 72.7004 15.5672L72.7583 16.1799L76.329 16.2374C80.4594 16.2948 80.7683 16.2565 80.7683 15.6246C80.7683 14.8013 80.4401 14.7247 77.2748 14.7821C75.6342 14.8204 73.9357 14.8587 73.4725 14.897Z" fill="black"/>
<path d="M72.3722 27.9753C72.295 28.071 72.295 28.3774 72.3529 28.6454L72.4687 29.105L76.3868 29.0667L80.2856 29.0092L80.3435 28.3774L80.4014 27.7646H76.4447C73.8777 27.7646 72.4494 27.8412 72.3722 27.9753Z" fill="black"/>
<path d="M64.6327 38.3725C64.5748 38.5256 64.5555 38.8512 64.5941 39.1001L64.652 39.5405L69.9211 39.5979L75.171 39.6362L75.4026 39.1575C75.557 38.7937 75.557 38.6214 75.364 38.3916C75.0166 37.9704 64.7871 37.9512 64.6327 38.3725Z" fill="black"/>
<path d="M64.5557 40.6894V41.3596L70.0178 41.3213L75.4607 41.2639V40.6894V40.115L70.0178 40.0576L64.5557 40.0193V40.6894Z" fill="black"/>
<path d="M130.661 56.5651C130.661 58.3458 132.05 59.5713 134.077 59.5713C136.084 59.5713 137.319 58.5564 137.551 56.7182C137.647 55.8949 137.609 55.7417 137.358 55.7417C137.165 55.7417 137.011 55.9715 136.914 56.4119C136.74 57.3501 136.084 57.7139 134.328 57.7905C132.456 57.8863 131.606 57.5225 131.355 56.4502C131.104 55.4545 130.661 55.5119 130.661 56.5651Z" fill="black"/>
<path d="M19.5244 60.0309C17.6908 60.6245 16.5328 62.2329 15.8765 65.1242C15.4519 67.0007 15.394 74.9854 15.7993 77.1874C16.4749 80.9213 17.768 82.4531 20.4316 82.6829C23.346 82.951 25.0059 81.4 25.778 77.7044C26.1833 75.7705 26.357 68.8006 26.0675 66.3114C25.6814 63.0371 24.7936 61.0649 23.346 60.3372C22.3424 59.8202 20.586 59.6862 19.5244 60.0309ZM22.7091 61.1606C23.8672 62.4435 23.983 63.1711 24.0795 70.0835C24.1567 76.8428 23.983 79.0256 23.2881 80.4426C22.188 82.6638 19.7174 82.7021 18.5594 80.5383C17.8066 79.0831 17.6908 78.164 17.6136 72.3622C17.4978 65.8327 17.6715 63.8796 18.4822 62.252C19.177 60.8542 20.0456 60.2606 21.2229 60.3947C21.8985 60.4713 22.2073 60.6436 22.7091 61.1606Z" fill="black"/>
<path d="M72.0815 59.9349C70.1128 60.4519 68.9161 61.8497 68.2406 64.4922C67.1983 68.4366 67.5264 77.2638 68.8003 80.0211C69.6689 81.8976 71.348 82.855 73.4905 82.7019C76.2698 82.4912 77.5437 80.7871 78.1806 76.383C78.4701 74.3534 78.4701 67.1729 78.1806 65.4304C77.7174 62.6731 76.7909 60.9689 75.4013 60.2796C74.5906 59.8775 72.9307 59.7052 72.0815 59.9349ZM74.5906 60.7966C75.2082 61.1987 75.7294 62.2327 76.0575 63.6879C76.4628 65.507 76.4242 77.0149 75.9996 78.8723C75.5943 80.5764 75.0731 81.4572 74.2239 81.8594C72.3131 82.7593 70.8848 81.6487 70.1321 78.6808C69.7268 77.0532 69.5531 69.4898 69.8426 66.2346C70.1514 62.7688 70.769 61.1796 72.0622 60.6051C72.7763 60.2796 73.9344 60.3753 74.5906 60.7966Z" fill="black"/>
<path d="M0.127313 60.2798C-0.162202 60.567 0.0308076 60.7011 0.822148 60.7585L1.63279 60.816L1.69069 71.2899L1.7293 81.7638L0.918653 81.8213C0.47473 81.8596 0.0887106 81.9936 0.0308076 82.1085C-0.0270954 82.3 0.590536 82.3574 2.69434 82.3574C4.79815 82.3574 5.41579 82.3 5.35788 82.1085C5.29998 81.9936 4.91396 81.8596 4.47004 81.8213L3.65939 81.7638V71.4239V61.1032H6.65105H9.6427V71.4431V81.783H8.87066C8.31093 81.783 8.09862 81.8596 8.09862 82.0702C8.09862 82.3191 8.52325 82.3574 10.8201 82.3574C12.9046 82.3574 13.5222 82.3 13.4643 82.1085C13.4064 81.9936 13.0204 81.8596 12.5765 81.8213L11.7658 81.7638V71.2325V60.7202H12.6537C13.2713 60.7202 13.5029 60.6436 13.4643 60.4713C13.3871 60.299 11.8623 60.2224 6.80546 60.1841C3.21547 60.1649 0.204517 60.2032 0.127313 60.2798Z" fill="black"/>
<path d="M28.3644 60.4139C28.3644 60.6436 28.5574 60.7202 29.1364 60.7202H29.9085V71.2516V81.783H29.1364C28.5767 81.783 28.3644 81.8596 28.3644 82.0702C28.3644 82.3191 28.789 82.3574 30.97 82.3574C33.151 82.3574 33.5756 82.3191 33.5756 82.0702C33.5756 81.8596 33.3633 81.783 32.8036 81.783H32.0316V77.4938V73.2047L34.0196 73.1281C35.8146 73.0707 36.0848 73.0132 36.9533 72.4771C38.8448 71.3282 39.7327 68.8964 39.5011 65.5072C39.4046 64.186 39.2694 63.6499 38.7483 62.635C38.1886 61.5436 37.9956 61.333 36.9919 60.8351C35.8918 60.2798 35.8146 60.2607 32.1088 60.1841C28.7504 60.1075 28.3644 60.1266 28.3644 60.4139ZM36.0848 61.5819C36.9533 62.3478 37.3007 63.5158 37.3972 65.9476C37.4938 68.3411 37.2428 70.1985 36.7024 71.1176C36.2006 71.9409 35.0425 72.4005 33.4212 72.4005H32.0316V66.7327V61.0649L33.8459 61.1415C35.332 61.1798 35.7374 61.2755 36.0848 61.5819Z" fill="black"/>
<path d="M45.7155 60.3373C44.5382 60.5287 43.8047 60.9309 43.052 61.7734C42.1448 62.7882 41.836 63.6882 41.7395 65.6221C41.5658 68.6092 42.5502 70.6772 44.4803 71.3473C44.9049 71.5005 45.233 71.7112 45.1944 71.826C45.1751 71.9409 44.3066 74.2004 43.245 76.862L41.3535 81.6872L40.7166 81.783C40.3498 81.8404 40.041 81.9936 39.9831 82.1085C39.9252 82.3 40.485 82.3574 42.3379 82.3574C44.3645 82.3574 44.7698 82.3191 44.7698 82.0702C44.7698 81.8596 44.5575 81.783 44.0749 81.783C43.4959 81.783 43.3994 81.7255 43.5152 81.4383C43.5731 81.266 44.4224 79.064 45.3874 76.5556L47.1438 72.0175H48.1668H49.209V76.9003V81.783H48.5335C48.0702 81.783 47.8579 81.8787 47.8579 82.0702C47.8579 82.3191 48.2826 82.3574 50.4829 82.3574C52.4902 82.3574 53.0885 82.3 53.0306 82.1085C52.9727 81.9936 52.5867 81.8596 52.1428 81.8213L51.3321 81.7638V71.2325V60.7202H52.22C52.8376 60.7202 53.0692 60.6436 53.0113 60.4713C52.9341 60.2032 47.2403 60.1075 45.7155 60.3373ZM49.209 65.8902V71.0601H47.6456C44.461 71.0601 43.8047 70.1985 43.7854 65.9668C43.7854 63.3243 43.9977 62.3095 44.7891 61.5627C45.426 60.9691 46.1594 60.7585 47.9158 60.7394L49.209 60.7202V65.8902Z" fill="black"/>
<path d="M55.3857 60.4328C55.3857 60.6434 55.598 60.72 56.1578 60.72H56.9298V67.6516C56.9298 77.0341 56.621 79.4467 55.2892 80.7679C54.9418 81.1126 54.5172 81.3998 54.3435 81.3998C54.0733 81.3998 54.0347 81.7445 54.0347 84.0805C54.0347 86.2251 54.0926 86.7612 54.3049 86.7612C54.4786 86.7612 54.5944 86.3974 54.6523 85.5358C54.7102 84.8656 54.9225 83.9656 55.1155 83.5635C55.656 82.4912 56.3508 82.3189 60.1531 82.3955C62.9517 82.4529 63.3184 82.4912 63.8203 82.855C64.5537 83.3912 64.8432 84.0231 64.9783 85.5166C65.0555 86.3783 65.1713 86.7612 65.345 86.7612C65.5574 86.7612 65.6153 86.2442 65.6153 84.272V81.7828H64.7467H63.8782L63.9168 71.2897L63.9747 60.8157L64.8046 60.7583C65.345 60.72 65.6153 60.6051 65.6153 60.4136C65.6153 60.1839 64.8239 60.1456 60.5005 60.1456C56.0806 60.1456 55.3857 60.1839 55.3857 60.4328ZM61.9481 71.3471V81.5913H58.6476H55.3471L55.9648 80.902C57.393 79.2744 57.5281 78.2595 57.644 68.9919L57.7405 61.103H59.8443H61.9481V71.3471Z" fill="black"/>
<path d="M80.2264 60.2798C79.9369 60.567 80.1299 60.7202 80.7669 60.7202H81.4424V65.5264C81.4424 70.9261 81.5582 71.7495 82.5233 72.6877C83.6041 73.76 85.9009 74.0472 87.4257 73.2813C87.7731 73.109 88.1012 72.9749 88.1398 72.9749C88.1591 72.9749 88.1977 74.9472 88.1977 77.379V81.783H87.3292C86.6923 81.783 86.4607 81.8596 86.4607 82.0702C86.4607 82.3191 86.9046 82.3574 89.2786 82.3574C91.4403 82.3574 92.0772 82.3 92.0193 82.1085C91.9614 81.9936 91.5754 81.8596 91.1315 81.8213L90.3209 81.7638V71.2325V60.7202H91.2087C91.8263 60.7202 92.0579 60.6436 92.0193 60.4713C91.9614 60.299 91.1894 60.2224 89.2979 60.1841C87.0397 60.1458 86.6537 60.1841 86.6537 60.433C86.6537 60.6436 86.866 60.7202 87.4257 60.7202H88.1977V66.3306C88.1977 72.5537 88.275 72.1707 86.9046 72.86C85.7079 73.4536 84.3375 73.1473 83.8164 72.1324C83.5655 71.6346 83.4883 70.5623 83.4111 66.1199L83.3146 60.7202H84.2217C84.878 60.7202 85.1096 60.6436 85.1096 60.433C85.1096 60.1841 84.7236 60.1458 82.7356 60.1458C81.4231 60.1458 80.2843 60.2032 80.2264 60.2798Z" fill="black"/>
<path d="M93.5439 60.2798C93.2351 60.5862 93.4667 60.7202 94.2774 60.7202H95.1459V71.2325V81.7638L94.3353 81.8213C93.8914 81.8596 93.5053 81.9936 93.4474 82.1085C93.3895 82.3 94.0072 82.3574 96.0917 82.3574C98.3885 82.3574 98.8131 82.3191 98.8131 82.0702C98.8131 81.8596 98.6008 81.783 98.0411 81.783H97.269V76.4216V71.0601H100.261H103.252V76.4024V81.7638L102.442 81.8213C101.998 81.8596 101.612 81.9936 101.554 82.1085C101.496 82.3 102.114 82.3574 104.217 82.3574C106.321 82.3574 106.939 82.3 106.881 82.1085C106.823 81.9936 106.437 81.8596 105.993 81.8213L105.182 81.7638L105.221 71.2899L105.279 60.816L106.109 60.7585C106.649 60.7202 106.92 60.6245 106.862 60.4713C106.765 60.1458 101.67 60.1458 101.573 60.4713C101.515 60.6436 101.747 60.7202 102.364 60.7202H103.252V65.5072V70.2942H100.261H97.269V65.5072V60.7202H98.0411C98.6008 60.7202 98.8131 60.6436 98.8131 60.433C98.8131 60.1841 98.4078 60.1458 96.2461 60.1458C94.8178 60.1458 93.6018 60.2032 93.5439 60.2798Z" fill="black"/>
<path d="M108.464 60.433C108.464 60.6436 108.676 60.7202 109.236 60.7202H110.008V71.2516V81.783H109.236C108.676 81.783 108.464 81.8596 108.464 82.0702C108.464 82.3191 109.004 82.3574 112.208 82.3574C115.914 82.3574 115.953 82.3574 116.956 81.8213C118.211 81.1894 118.944 79.9831 119.388 77.9342C119.736 76.3258 119.659 73.4153 119.234 72.1133C118.887 71.0601 117.439 69.624 116.474 69.356C116.049 69.2411 114.891 69.1453 113.926 69.1453H112.131V64.9328V60.7202H112.903C113.463 60.7202 113.675 60.6436 113.675 60.433C113.675 60.1841 113.251 60.1458 111.07 60.1458C108.889 60.1458 108.464 60.1841 108.464 60.433ZM116.011 70.2176C116.377 70.4091 116.763 70.8495 117.014 71.4048C117.4 72.209 117.439 72.6303 117.439 75.4642C117.439 79.1789 117.227 80.1746 116.242 81.0171C115.625 81.5724 115.509 81.5915 113.868 81.5915H112.131V75.7514V69.9112H113.772C114.911 69.9112 115.625 70.007 116.011 70.2176Z" fill="black"/>
<path d="M120.045 60.433C120.045 60.6436 120.257 60.7202 120.817 60.7202H121.589V71.2516V81.783H120.914C120.45 81.783 120.238 81.8787 120.238 82.0702C120.238 82.3191 120.663 82.3574 122.863 82.3574C124.87 82.3574 125.469 82.3 125.411 82.1085C125.353 81.9936 124.967 81.8596 124.523 81.8213L123.712 81.7638V71.2325V60.7202H124.6C125.218 60.7202 125.449 60.6436 125.411 60.4713C125.353 60.299 124.581 60.2224 122.689 60.1841C120.431 60.1458 120.045 60.1841 120.045 60.433Z" fill="black"/>
<path d="M126.935 60.2798C126.626 60.5862 126.858 60.7202 127.668 60.7202H128.537V71.2325V81.7638L127.726 81.8213C127.282 81.8596 126.896 81.9936 126.838 82.1085C126.78 82.3 127.205 82.3574 128.575 82.3574H130.37L132.957 74.1621C134.385 69.6623 135.794 65.2966 136.083 64.4541L136.605 62.9222L136.624 72.343L136.643 81.783H135.775C135.138 81.783 134.906 81.8596 134.906 82.0702C134.906 82.3191 135.331 82.3574 137.628 82.3574C139.712 82.3574 140.33 82.3 140.272 82.1085C140.214 81.9936 139.828 81.8596 139.384 81.8213L138.573 81.7638V71.2325V60.7202H139.461C140.079 60.7202 140.31 60.6436 140.272 60.4713C140.214 60.3181 139.635 60.2224 138.515 60.1841C137.087 60.1458 136.836 60.1841 136.682 60.4713C136.585 60.6628 135.176 65.0285 133.536 70.1985L130.563 79.581L130.505 70.3899C130.486 65.3349 130.505 61.084 130.563 60.95C130.602 60.816 130.988 60.7202 131.432 60.7202C131.992 60.7202 132.204 60.6436 132.204 60.433C132.204 60.1841 131.799 60.1458 129.637 60.1458C128.209 60.1458 126.993 60.2032 126.935 60.2798Z" fill="black"/>
<path d="M89.8231 86.875C87.7193 87.8898 86.3296 89.5557 86.4261 90.896C86.4647 91.3173 86.5805 91.6811 86.7156 91.7194C86.87 91.7768 86.9086 91.6045 86.8314 91.1258C86.5612 89.4982 88.9931 87.1813 91.3093 86.8558C92.0041 86.7792 92.2743 86.8175 92.5638 87.0856C93.085 87.5643 93.0464 88.0238 92.2743 90.4173C90.9232 94.5725 91.483 95.2809 94.3202 93.0023C95.7099 91.8917 95.845 91.8151 95.4976 92.3896C93.7026 95.3001 92.5252 97.6361 91.8883 99.5126C91.3672 101.064 91.3093 101.351 91.5795 101.351C91.6567 101.351 91.9848 100.681 92.2743 99.8573C93.2973 97.0042 96.7907 90.8577 98.0453 89.6897C98.3155 89.4408 98.4892 89.1536 98.412 89.0578C98.3541 88.943 97.8716 89.2876 97.3119 89.8238C94.7255 92.2938 92.4094 94.0363 92.1006 93.7491C91.8497 93.5002 92.0041 92.6577 92.6603 90.6854C93.471 88.2536 93.5289 87.143 92.9112 86.7218C92.2936 86.2814 90.8846 86.358 89.8231 86.875Z" fill="black"/>
<path d="M80.5006 90.3408C78.86 92.6003 76.5632 96.832 76.8141 97.1001C76.872 97.1575 77.065 97.0809 77.2387 96.9277C77.4124 96.7937 77.895 96.698 78.3968 96.7363C79.0916 96.7746 79.3232 96.698 79.7286 96.2959C80.4234 95.6065 80.3269 94.9555 79.4969 94.8789C79.1495 94.8406 78.6863 94.9172 78.4547 95.0512C78.0687 95.2427 78.088 95.1661 78.6477 94.1513C78.9951 93.5194 79.8444 92.179 80.5199 91.1642C81.1954 90.1494 81.7552 89.2686 81.7552 89.2111C81.7552 88.8281 81.2726 89.2686 80.5006 90.3408ZM79.632 95.6065C79.4197 96.0086 78.7249 96.2576 78.1459 96.1427C77.8757 96.0852 77.9336 95.9895 78.474 95.6448C79.3618 95.0895 79.9216 95.0704 79.632 95.6065Z" fill="black"/>
<path d="M39.0039 95.5298C38.367 96.2 37.8651 96.5638 37.5949 96.5638C37.2282 96.5638 37.1703 96.4872 37.2668 96.1617C37.3633 95.8744 37.3247 95.7787 37.151 95.8362C36.6878 95.9893 36.4948 96.5063 36.765 96.8318C37.1124 97.2531 37.7879 97.2148 38.3863 96.7553L38.8881 96.3531L39.2934 96.7553C39.6601 97.1191 39.6987 97.1191 40.4708 96.8127C41.2814 96.5063 41.4358 96.5446 41.6674 97.2148C41.7832 97.5595 42.8834 97.3871 44.0222 96.8893C45.0837 96.3914 45.1609 96.3914 45.5083 96.6978C45.8558 97.0042 45.9523 97.0042 46.705 96.7361C47.3805 96.5063 47.5542 96.4872 47.7666 96.6978C48.2491 97.2148 50.7196 96.717 51.1442 96.0085C51.3565 95.6638 52.3988 95.1851 52.6304 95.3383C52.7462 95.3957 52.5725 95.683 52.2058 95.9893C51.6461 96.4489 51.5882 96.5638 51.8198 96.8318C52.1479 97.2148 52.669 97.2148 53.4217 96.8318C53.9043 96.5829 54.0973 96.5638 54.4447 96.7553C54.7921 96.9276 55.043 96.9467 55.5642 96.7744C56.066 96.6021 56.3748 96.6021 56.645 96.7361C57.475 97.1765 58.9997 96.7935 59.9455 95.8936L60.428 95.434L60.3701 96.7553L60.2929 98.0765L59.5016 98.5552C59.0576 98.8041 58.2277 99.4934 57.668 100.068C56.6257 101.178 56.452 101.734 56.8766 102.557C57.3785 103.495 58.1505 103.495 59.0576 102.576C59.8683 101.734 60.3315 100.815 60.621 99.436C60.7754 98.6318 60.9105 98.3637 61.2 98.3254C61.8177 98.2105 62.0107 97.9041 61.451 97.9041C61.007 97.9041 60.9491 97.8084 60.8333 97.0042C60.7368 96.2574 60.7947 95.9893 61.1035 95.5681C61.5282 94.9936 61.6054 94.649 61.2966 94.649C60.9491 94.649 60.0613 95.166 59.6753 95.5872C59.2506 96.0468 57.5715 96.6021 57.1275 96.4297C56.8766 96.334 56.8766 96.2766 57.1468 95.8744C57.5908 95.1851 57.5136 95.0894 56.4134 95.0511C55.5256 95.0319 55.2553 95.1085 54.5412 95.6255C53.1129 96.6595 51.4144 97.1574 52.669 96.1617C53.5183 95.5106 53.2866 94.8405 52.2251 94.8405C52.0321 94.8405 51.5882 95.0702 51.2407 95.3575C50.5266 95.951 48.886 96.5638 48.3456 96.4297C47.9982 96.334 47.9789 96.2957 48.2684 95.8744C48.7123 95.1851 48.6351 95.0894 47.5349 95.0511C46.8015 95.0319 46.3576 95.1277 46.0295 95.3766C45.3153 95.8936 42.6325 96.985 42.2465 96.9084C41.7639 96.8127 41.8411 95.9893 42.4009 95.2426C43.1343 94.2469 42.6132 94.3426 41.6095 95.3766C41.0691 95.9127 40.4515 96.4106 40.2392 96.468C39.5636 96.6978 39.4092 96.2957 39.8531 95.4532C40.548 94.0745 40.3164 94.1128 39.0039 95.5298ZM47.5928 95.5681C47.5928 95.7787 46.5313 96.3723 46.1646 96.3723C45.7593 96.3723 45.9716 95.8936 46.4927 95.6447C46.9945 95.3957 47.5928 95.3575 47.5928 95.5681ZM56.4713 95.5681C56.4713 95.7787 55.4097 96.3723 55.043 96.3723C54.5605 96.3723 54.6763 96.0276 55.2746 95.7213C55.8344 95.3957 56.4713 95.3192 56.4713 95.5681ZM60.042 99.5509C59.8683 100.547 59.6753 100.968 58.9804 101.887C58.4979 102.557 58.2856 102.71 57.861 102.653C57.4364 102.615 57.3205 102.48 57.2819 101.983C57.2433 101.638 57.3205 101.198 57.4364 100.968C57.668 100.547 59.7332 98.8615 60.0227 98.8615C60.0999 98.8615 60.1192 99.1679 60.042 99.5509Z" fill="black"/>
<path d="M81.2732 95.2617C79.845 96.9276 80.2503 98.1339 81.9102 97.1382L82.5664 96.7361L82.4313 97.1765C82.1225 98.1339 81.7172 98.8232 80.6942 100.01C78.1079 103.017 76.9691 107.076 78.8992 106.348C79.8064 106.004 80.81 104.089 81.9488 100.451C82.5278 98.5743 82.605 98.4594 83.5508 97.6935C84.1105 97.2722 84.8825 96.7169 85.2685 96.4872C86.0213 96.0659 86.195 95.7978 85.7318 95.7978C85.4809 95.7978 84.5544 96.3723 83.3384 97.2914L82.7015 97.7701L82.9138 97.2148C83.0296 96.9084 83.3384 96.2574 83.6087 95.7404C84.1491 94.6681 84.1491 94.649 83.8403 94.649C83.7052 94.649 83.4156 94.917 83.2033 95.2426C82.7401 95.951 81.196 97.1765 80.9644 97.0233C80.7328 96.8893 81.2346 95.9702 81.9681 95.1277C82.3927 94.649 82.4892 94.4575 82.2769 94.4575C82.1032 94.4575 81.6593 94.8213 81.2732 95.2617ZM81.1767 101.293C80.2503 104.07 79.1887 105.946 78.5325 105.946C78.1658 105.946 78.2237 105.353 78.6676 104.146C79.2466 102.634 81.2539 99.6274 81.5241 99.8955C81.5627 99.953 81.4083 100.566 81.1767 101.293Z" fill="black"/>
<path d="M62.3964 94.8597C61.8367 95.166 61.4507 96.1234 61.6823 96.5638C61.9332 97.0234 62.9755 97.0808 63.7861 96.6596C64.2879 96.4106 64.3651 96.4106 64.5968 96.6787C64.8477 96.9851 65.7741 96.9659 66.5655 96.6596C66.8164 96.5447 66.8743 96.6021 66.7778 96.8319C66.7006 97.0425 66.7585 97.1383 66.9708 97.1383C67.1445 97.1383 67.2796 97.0617 67.2796 96.9468C67.2796 96.6979 68.013 96.2383 68.6886 96.0851C69.1518 95.9702 69.2097 96.0085 69.2097 96.4106C69.2097 97.0234 69.9045 97.3489 70.7731 97.1574C71.9118 96.9085 73.1085 96.1617 72.8383 95.8745C72.7804 95.8362 72.2592 96.0085 71.6609 96.2958C69.8852 97.0808 69.0553 96.6596 70.0782 95.4532C70.3484 95.1469 70.5608 94.8214 70.5608 94.7639C70.5608 94.515 70.0782 94.6682 69.7115 95.0128C69.4799 95.2235 69.0553 95.4532 68.7658 95.5107C68.2639 95.6447 68.2253 95.6256 68.3604 95.1469C68.4956 94.6299 68.1674 94.4384 67.9937 94.9362C67.7814 95.4532 66.2759 96.3723 65.639 96.3723C64.8863 96.3723 64.7319 96.2383 64.9828 95.7788C65.253 95.2426 64.8477 95.3192 64.0563 95.9128C63.7089 96.1809 63.1106 96.4489 62.7439 96.5064C62.1648 96.6021 62.0683 96.5638 62.0683 96.2383C62.0683 96.0277 62.2613 95.6256 62.4736 95.3384C62.9369 94.7639 62.8983 94.5916 62.3964 94.8597Z" fill="black"/>
<path d="M96.7335 95.2617C96.5598 95.4915 96.4247 95.9319 96.4247 96.2382C96.4247 97.0999 97.4283 97.2531 98.6636 96.602C98.9338 96.468 99.1461 96.4872 99.4163 96.6786C99.6093 96.8318 99.9954 96.9467 100.266 96.9467C100.883 96.9276 102.408 96.1808 102.678 95.7595C103.045 95.166 102.64 95.1851 101.81 95.7787C101.289 96.1616 100.767 96.3723 100.323 96.3723C99.7252 96.3723 99.6672 96.334 99.7831 95.8936C99.9375 95.2617 99.5707 95.2617 98.8952 95.8936C98.6057 96.1425 98.0267 96.4106 97.602 96.4872C96.9072 96.602 96.8107 96.5638 96.8107 96.2382C96.8107 96.0276 96.9844 95.6255 97.216 95.3383C97.5248 94.9362 97.5441 94.8404 97.3125 94.8404C97.1581 94.8404 96.8879 95.0319 96.7335 95.2617Z" fill="black"/>
</svg>
