<svg width="233" height="76" viewBox="0 0 233 76" fill="none" xmlns="http://www.w3.org/2000/svg">
<path d="M23.9056 1.94373C22.2226 2.9867 18.0033 5.54673 14.5425 7.63268C11.0818 9.74233 7.90543 11.7098 7.50247 12.0179L6.72024 12.5868V34.0389V55.4673H5.72467C5.17948 55.4673 4.27873 55.2539 3.70983 54.9695C2.54834 54.4006 1.76611 54.4954 1.05499 55.2539C-0.0590954 56.4628 0.367576 58.3591 1.81352 58.7384C2.69056 58.9755 3.5202 58.7384 4.25502 58.051C4.63429 57.6954 5.01355 57.6006 5.67726 57.648L6.60172 57.7191L6.67283 60.611L6.74394 63.5266H27.3427H47.9651V60.5636V57.6006H48.8185C49.34 57.6006 49.9326 57.814 50.4303 58.1932C51.4496 58.9755 52.54 58.9755 53.2985 58.1932C54.5785 56.9369 53.7015 54.7087 51.9237 54.7087C51.4259 54.7087 50.7859 54.8747 50.454 55.088C50.1459 55.3013 49.4585 55.4673 48.9133 55.4673H47.9651V34.0389V12.5868L47.2066 12.0179C46.7799 11.6861 44.3384 10.169 41.8021 8.62824C39.2658 7.11119 35.0702 4.52746 32.5101 2.91559C29.9264 1.32742 27.6271 0 27.4138 0C27.1768 0.0237045 25.6123 0.877048 23.9056 1.94373ZM31.0879 6.37637C33.0079 7.53786 36.445 9.62381 38.7206 11.0223C40.9962 12.4209 43.2243 13.772 43.651 14.0327L44.4095 14.5068V19.935V25.3632H42.5132H40.6169V23.3721C40.6169 21.9499 40.5221 21.3099 40.285 21.1202C40.0243 20.9069 38.7443 20.8595 35.5443 20.9543C33.1027 21.0254 31.0168 21.1439 30.8983 21.215C30.7561 21.2862 30.6612 22.2106 30.6612 23.2299C30.6612 24.2492 30.5664 25.1499 30.4242 25.2447C30.0686 25.4581 22.1278 20.575 22.1278 20.1247C22.1278 19.9113 22.3886 19.6269 22.7441 19.4847C23.4078 19.1765 24.0241 17.9202 24.0241 16.9009C24.0241 15.2416 22.1989 13.7957 20.4685 14.0802C19.0937 14.2935 17.5292 16.3557 17.9559 17.4224C18.1218 17.8491 19.2596 17.8965 19.3307 17.4698C19.3307 17.3276 19.3782 17.0669 19.3782 16.9246C19.4967 15.8817 21.2508 15.5024 22.0093 16.3557C22.5071 16.9246 22.3411 17.9202 21.6774 18.1335C21.0374 18.3232 20.6819 18.8209 20.6108 19.6032C20.5396 20.1721 20.0419 20.5513 16.3677 22.7795C13.6892 24.3914 11.864 25.3632 11.2477 25.4581L10.2758 25.6003V20.0773V14.5305L15.3248 11.4727C18.0744 9.81344 21.63 7.63268 23.2182 6.63711C24.7827 5.66525 26.276 4.7408 26.5367 4.57487C26.7738 4.43264 27.1293 4.29042 27.2953 4.29042C27.4849 4.26672 29.1916 5.21487 31.0879 6.37637ZM25.0908 24.2017L26.513 25.1262H21.2034C18.2878 25.1262 15.9648 25.0551 16.0359 24.984C16.1307 24.8892 17.2922 24.1543 18.6196 23.3484L21.0611 21.8551L22.3649 22.5899C23.076 22.9691 24.3086 23.704 25.0908 24.2017ZM44.0066 28.2077C44.3858 28.2077 44.4095 28.6581 44.4095 34.4893V40.7708H42.1577H39.9295L39.8584 38.6849C39.811 37.5471 39.7161 36.6463 39.6213 36.67C39.5028 36.7174 37.4643 36.7411 35.0465 36.7411H30.6849L30.6138 38.6849L30.5427 40.6523L29.6657 40.7234L28.7649 40.7945V36.2908V31.7633H27.4612H26.1575V36.2671C26.1575 40.6049 26.1338 40.7708 25.6834 40.7708C25.233 40.7708 25.2093 40.6049 25.2093 36.2671V31.7396L23.5026 31.8107L21.7723 31.8818L21.7011 36.3145C21.6537 40.5812 21.63 40.7708 21.1797 40.7708C20.7293 40.7708 20.7056 40.6049 20.7056 36.2671V31.7633H19.0463H17.387V36.4093C17.387 40.6997 17.3633 41.0316 16.9841 40.9604C16.6048 40.8893 16.5574 40.439 16.4863 36.3145L16.4389 31.7633H14.6611H12.8833V36.2434V40.7471L11.8403 40.8893C11.2477 40.9841 10.6788 40.9841 10.5366 40.8893C10.3706 40.7945 10.2758 38.6849 10.2758 34.4656V28.2077L26.4419 28.1366C35.3546 28.1129 42.8451 28.1129 43.1058 28.1366C43.3666 28.184 43.7695 28.2077 44.0066 28.2077ZM44.3621 49.4702L44.4095 55.4673H39.3369H34.2405L34.1694 53.6184L34.0983 51.7932L27.4138 51.722L20.7293 51.6746L20.6582 53.4998L20.5871 55.3487L15.4433 55.4199L10.2758 55.4673V49.4228V43.3782L27.2953 43.4257L44.291 43.4968L44.3621 49.4702ZM44.4095 59.4969V61.3933L27.4138 61.3458L10.3944 61.2747L10.3232 59.7577C10.2758 58.928 10.2995 58.0984 10.3706 57.9325C10.4655 57.648 13.4048 57.6006 27.4612 57.6006H44.4095V59.4969Z" fill="black"/>
<path d="M31.6568 18.4417C30.6612 18.5128 30.6375 18.5365 30.7086 19.2714L30.7797 20.0299L35.165 20.101C40.2376 20.1721 40.6169 20.1247 40.6169 19.3425C40.6169 18.3232 40.2139 18.2284 36.3264 18.2995C34.3116 18.3469 32.2257 18.3943 31.6568 18.4417Z" fill="black"/>
<path d="M30.3056 34.6315C30.2108 34.75 30.2108 35.1293 30.2819 35.4612L30.4241 36.0301L35.236 35.9827L40.0242 35.9115L40.0953 35.1293L40.1664 34.3708H35.3071C32.1545 34.3708 30.4004 34.4656 30.3056 34.6315Z" fill="black"/>
<path d="M20.8003 47.5028C20.7292 47.6924 20.7055 48.0954 20.7529 48.4035L20.824 48.9487L27.2952 49.0198L33.7427 49.0672L34.0272 48.4746C34.2168 48.0243 34.2168 47.8109 33.9797 47.5265C33.5531 47.005 20.99 46.9813 20.8003 47.5028Z" fill="black"/>
<path d="M20.7058 50.3709V51.2006L27.414 51.1532L34.0985 51.082V50.3709V49.6598L27.414 49.5887L20.7058 49.5413V50.3709Z" fill="black"/>
<path d="M220.767 17.138C220.767 19.3425 222.474 20.8596 224.962 20.8596C227.428 20.8596 228.945 19.6032 229.229 17.3277C229.348 16.3084 229.3 16.1188 228.992 16.1188C228.755 16.1188 228.565 16.4032 228.447 16.9484C228.234 18.1099 227.428 18.5603 225.271 18.6551C222.971 18.7736 221.928 18.3232 221.62 16.9958C221.312 15.7632 220.767 15.8343 220.767 17.138Z" fill="black"/>
<path d="M84.2796 21.4284C82.0278 22.1632 80.6055 24.1544 79.7996 27.7337C79.2781 30.0567 79.207 39.9412 79.7048 42.6672C80.5344 47.2894 82.1226 49.1857 85.3937 49.4702C88.973 49.8021 91.0116 47.882 91.9597 43.3072C92.4575 40.9131 92.6708 32.2848 92.3153 29.2033C91.8412 25.1499 90.7508 22.7084 88.973 21.8077C87.7404 21.1677 85.5834 21.0017 84.2796 21.4284ZM88.1908 22.8269C89.613 24.4151 89.7553 25.3159 89.8738 33.873C89.9686 42.2405 89.7553 44.9427 88.9019 46.6968C87.5508 49.4465 84.5167 49.4939 83.0944 46.8154C82.17 45.0139 82.0278 43.8761 81.9329 36.6938C81.7907 28.6107 82.0041 26.1929 82.9996 24.1781C83.853 22.4477 84.9196 21.7129 86.3656 21.8788C87.1952 21.9736 87.5745 22.1869 88.1908 22.8269Z" fill="black"/>
<path d="M148.826 21.3099C146.408 21.9499 144.938 23.6803 144.109 26.9514C142.829 31.8345 143.232 42.762 144.796 46.1754C145.863 48.4983 147.925 49.6835 150.556 49.4939C153.969 49.2332 155.534 47.1235 156.316 41.6716C156.672 39.159 156.672 30.27 156.316 28.1129C155.747 24.6996 154.609 22.5899 152.903 21.7366C151.907 21.2388 149.869 21.0255 148.826 21.3099ZM151.907 22.3766C152.666 22.8744 153.306 24.1544 153.709 25.9559C154.207 28.2078 154.159 42.4538 153.638 44.7531C153.14 46.8628 152.5 47.9532 151.457 48.4509C149.11 49.565 147.356 48.1902 146.432 44.5161C145.934 42.5012 145.721 33.1382 146.076 29.1085C146.455 24.8181 147.214 22.8507 148.802 22.1395C149.679 21.7366 151.101 21.8551 151.907 22.3766Z" fill="black"/>
<path d="M60.4574 21.7366C60.1018 22.0921 60.3389 22.2581 61.3107 22.3292L62.3063 22.4003L62.3774 35.3663L62.4248 48.3324L61.4292 48.4035C60.8841 48.4509 60.41 48.6169 60.3389 48.7591C60.2677 48.9961 61.0263 49.0672 63.61 49.0672C66.1937 49.0672 66.9523 48.9961 66.8812 48.7591C66.81 48.6169 66.336 48.4509 65.7908 48.4035L64.7952 48.3324V35.5323V22.7558H68.4693H72.1434V35.556V48.3561H71.1953C70.5079 48.3561 70.2471 48.4509 70.2471 48.7117C70.2471 49.0198 70.7686 49.0672 73.5894 49.0672C76.1494 49.0672 76.9079 48.9961 76.8368 48.7591C76.7657 48.6169 76.2916 48.4509 75.7464 48.4035L74.7509 48.3324V35.2952V22.2818H75.8413C76.5998 22.2818 76.8842 22.1869 76.8368 21.9736C76.742 21.7603 74.8694 21.6655 68.6589 21.618C64.25 21.5943 60.5522 21.6417 60.4574 21.7366Z" fill="black"/>
<path d="M95.136 21.9025C95.136 22.1869 95.373 22.2818 96.0841 22.2818H97.0323V35.3189V48.3561H96.0841C95.3967 48.3561 95.136 48.4509 95.136 48.7117C95.136 49.0198 95.6575 49.0672 98.336 49.0672C101.015 49.0672 101.536 49.0198 101.536 48.7117C101.536 48.4509 101.275 48.3561 100.588 48.3561H99.6397V43.0464V37.7367L102.081 37.6419C104.286 37.5708 104.618 37.4997 105.684 36.836C108.007 35.4137 109.098 32.4033 108.813 28.2077C108.695 26.5722 108.529 25.9085 107.889 24.6522C107.201 23.301 106.964 23.0403 105.732 22.424C104.381 21.7366 104.286 21.7129 99.7346 21.618C95.6101 21.5232 95.136 21.5469 95.136 21.9025ZM104.618 23.3484C105.684 24.2966 106.111 25.7425 106.229 28.7529C106.348 31.7159 106.04 34.0152 105.376 35.153C104.76 36.1723 103.338 36.7412 101.346 36.7412H99.6397V29.7248V22.7084L101.868 22.8032C103.693 22.8506 104.191 22.9692 104.618 23.3484Z" fill="black"/>
<path d="M116.446 21.8077C115 22.0447 114.099 22.5425 113.174 23.5855C112.06 24.8418 111.681 25.9559 111.563 28.35C111.349 32.0478 112.558 34.6078 114.929 35.4375C115.45 35.6271 115.853 35.8878 115.806 36.0301C115.782 36.1723 114.715 38.9693 113.412 42.2642L111.089 48.2376L110.306 48.3561C109.856 48.4272 109.477 48.6169 109.406 48.7591C109.334 48.9961 110.022 49.0672 112.297 49.0672C114.786 49.0672 115.284 49.0198 115.284 48.7117C115.284 48.4509 115.023 48.3561 114.431 48.3561C113.72 48.3561 113.601 48.285 113.743 47.9294C113.814 47.7161 114.857 44.9901 116.043 41.8849L118.2 36.2671H119.456H120.736V42.3116V48.3561H119.906C119.338 48.3561 119.077 48.4746 119.077 48.7117C119.077 49.0198 119.598 49.0672 122.301 49.0672C124.766 49.0672 125.501 48.9961 125.429 48.7591C125.358 48.6169 124.884 48.4509 124.339 48.4035L123.343 48.3324V35.2952V22.2818H124.434C125.192 22.2818 125.477 22.1869 125.406 21.9736C125.311 21.6417 118.318 21.5232 116.446 21.8077ZM120.736 28.6818V35.0819H118.816C114.905 35.0819 114.099 34.0152 114.075 28.7766C114.075 25.5055 114.336 24.2492 115.308 23.3247C116.09 22.5899 116.991 22.3292 119.148 22.3055L120.736 22.2818V28.6818Z" fill="black"/>
<path d="M128.322 21.9262C128.322 22.1869 128.582 22.2817 129.27 22.2817H130.218V30.8626C130.218 42.4775 129.839 45.4642 128.203 47.0998C127.776 47.5265 127.255 47.882 127.042 47.882C126.71 47.882 126.662 48.3087 126.662 51.2006C126.662 53.8554 126.733 54.5191 126.994 54.5191C127.208 54.5191 127.35 54.0688 127.421 53.0021C127.492 52.1724 127.753 51.0584 127.99 50.5606C128.653 49.2332 129.507 49.0198 134.177 49.1146C137.614 49.1857 138.064 49.2332 138.68 49.6835C139.581 50.3472 139.937 51.1295 140.102 52.9784C140.197 54.0451 140.34 54.5191 140.553 54.5191C140.814 54.5191 140.885 53.8791 140.885 51.4376V48.3561H139.818H138.751L138.799 35.3663L138.87 22.4003L139.889 22.3292C140.553 22.2817 140.885 22.1395 140.885 21.9025C140.885 21.618 139.913 21.5706 134.603 21.5706C129.175 21.5706 128.322 21.618 128.322 21.9262ZM136.381 35.4374V48.1191H132.328H128.274L129.033 47.2657C130.787 45.2509 130.953 43.9946 131.095 32.5219L131.214 22.7558H133.797H136.381V35.4374Z" fill="black"/>
<path d="M158.829 21.7366C158.473 22.0921 158.71 22.2818 159.492 22.2818H160.322V28.2314C160.322 34.916 160.464 35.9352 161.649 37.0967C162.977 38.4242 165.798 38.7797 167.67 37.8316C168.097 37.6182 168.5 37.4523 168.547 37.4523C168.571 37.4523 168.618 39.8938 168.618 42.9042V48.3561H167.552C166.769 48.3561 166.485 48.4509 166.485 48.7117C166.485 49.0198 167.03 49.0672 169.946 49.0672C172.601 49.0672 173.383 48.9961 173.312 48.7591C173.241 48.6169 172.766 48.4509 172.221 48.4035L171.226 48.3324V35.2952V22.2818H172.316C173.075 22.2818 173.359 22.1869 173.312 21.9736C173.241 21.7603 172.292 21.6655 169.969 21.618C167.196 21.5706 166.722 21.618 166.722 21.9262C166.722 22.1869 166.983 22.2818 167.67 22.2818H168.618V29.227C168.618 36.9308 168.713 36.4567 167.03 37.3101C165.56 38.0449 163.877 37.6656 163.237 36.4093C162.929 35.793 162.835 34.4656 162.74 28.9663L162.621 22.2818H163.735C164.541 22.2818 164.826 22.1869 164.826 21.9262C164.826 21.618 164.352 21.5706 161.91 21.5706C160.298 21.5706 158.9 21.6417 158.829 21.7366Z" fill="black"/>
<path d="M175.185 21.7366C174.805 22.1158 175.09 22.2818 176.085 22.2818H177.152V35.2952V48.3324L176.157 48.4035C175.611 48.4509 175.137 48.6169 175.066 48.7591C174.995 48.9961 175.754 49.0672 178.314 49.0672C181.134 49.0672 181.656 49.0198 181.656 48.7117C181.656 48.4509 181.395 48.3561 180.708 48.3561H179.76V41.719V35.0819H183.434H187.108V41.6953V48.3324L186.112 48.4035C185.567 48.4509 185.093 48.6169 185.022 48.7591C184.951 48.9961 185.709 49.0672 188.293 49.0672C190.877 49.0672 191.635 48.9961 191.564 48.7591C191.493 48.6169 191.019 48.4509 190.474 48.4035L189.478 48.3324L189.526 35.3663L189.597 22.4003L190.616 22.3292C191.28 22.2818 191.611 22.1632 191.54 21.9736C191.422 21.5706 185.164 21.5706 185.045 21.9736C184.974 22.1869 185.259 22.2818 186.017 22.2818H187.108V28.2077V34.1337H183.434H179.76V28.2077V22.2818H180.708C181.395 22.2818 181.656 22.1869 181.656 21.9262C181.656 21.618 181.158 21.5706 178.503 21.5706C176.749 21.5706 175.256 21.6417 175.185 21.7366Z" fill="black"/>
<path d="M193.508 21.9262C193.508 22.1869 193.768 22.2818 194.456 22.2818H195.404V35.3189V48.3561H194.456C193.768 48.3561 193.508 48.4509 193.508 48.7117C193.508 49.0198 194.171 49.0672 198.106 49.0672C202.657 49.0672 202.705 49.0672 203.937 48.4035C205.478 47.6213 206.379 46.1279 206.924 43.5916C207.351 41.6005 207.256 37.9975 206.734 36.3856C206.308 35.0819 204.53 33.3041 203.345 32.9722C202.823 32.83 201.401 32.7115 200.216 32.7115H198.011V27.4966V22.2818H198.959C199.647 22.2818 199.908 22.1869 199.908 21.9262C199.908 21.618 199.386 21.5706 196.708 21.5706C194.029 21.5706 193.508 21.618 193.508 21.9262ZM202.776 34.0389C203.226 34.276 203.7 34.8211 204.008 35.5086C204.483 36.5041 204.53 37.0256 204.53 40.5338C204.53 45.1324 204.269 46.365 203.06 47.408C202.302 48.0954 202.16 48.1191 200.145 48.1191H198.011V40.8894V33.6597H200.026C201.425 33.6597 202.302 33.7782 202.776 34.0389Z" fill="black"/>
<path d="M207.73 21.9262C207.73 22.1869 207.99 22.2818 208.678 22.2818H209.626V35.3189V48.3561H208.796C208.228 48.3561 207.967 48.4746 207.967 48.7117C207.967 49.0198 208.488 49.0672 211.191 49.0672C213.656 49.0672 214.391 48.9961 214.319 48.7591C214.248 48.6169 213.774 48.4509 213.229 48.4035L212.233 48.3324V35.2952V22.2818H213.324C214.082 22.2818 214.367 22.1869 214.319 21.9736C214.248 21.7603 213.3 21.6655 210.977 21.618C208.204 21.5706 207.73 21.618 207.73 21.9262Z" fill="black"/>
<path d="M216.192 21.7366C215.813 22.1158 216.097 22.2818 217.093 22.2818H218.159V35.2952V48.3324L217.164 48.4035C216.619 48.4509 216.145 48.6169 216.073 48.7591C216.002 48.9961 216.524 49.0672 218.207 49.0672H220.411L223.588 38.9219C225.342 33.3515 227.072 27.947 227.428 26.904L228.068 25.0077L228.091 36.6701L228.115 48.3561H227.048C226.266 48.3561 225.982 48.4509 225.982 48.7117C225.982 49.0198 226.503 49.0672 229.324 49.0672C231.884 49.0672 232.643 48.9961 232.571 48.7591C232.5 48.6169 232.026 48.4509 231.481 48.4035L230.485 48.3324V35.2952V22.2818H231.576C232.334 22.2818 232.619 22.1869 232.571 21.9736C232.5 21.784 231.789 21.6655 230.414 21.618C228.66 21.5706 228.352 21.618 228.162 21.9736C228.044 22.2106 226.314 27.6151 224.299 34.0152L220.648 45.6302L220.577 34.2523C220.553 27.9944 220.577 22.7321 220.648 22.5662C220.696 22.4003 221.17 22.2818 221.715 22.2818C222.402 22.2818 222.663 22.1869 222.663 21.9262C222.663 21.618 222.165 21.5706 219.511 21.5706C217.756 21.5706 216.263 21.6417 216.192 21.7366Z" fill="black"/>
<path d="M216.453 51.0583C213.869 52.3146 212.162 54.3769 212.281 56.0362C212.328 56.5576 212.471 57.008 212.637 57.0554C212.826 57.1265 212.874 56.9132 212.779 56.3206C212.447 54.3058 215.434 51.4376 218.278 51.0346C219.131 50.9398 219.463 50.9872 219.819 51.3191C220.459 51.9117 220.411 52.4806 219.463 55.4436C217.804 60.5873 218.491 61.4644 221.976 58.6436C223.683 57.2688 223.848 57.1739 223.422 57.8851C221.217 61.4881 219.771 64.3799 218.989 66.7029C218.349 68.623 218.278 68.9785 218.61 68.9785C218.705 68.9785 219.108 68.1489 219.463 67.1296C220.72 63.5977 225.01 55.9887 226.551 54.5428C226.883 54.2347 227.096 53.8791 227.001 53.7606C226.93 53.6183 226.337 54.045 225.65 54.7087C222.474 57.7665 219.629 59.9236 219.25 59.568C218.942 59.2599 219.131 58.2169 219.937 55.7754C220.933 52.765 221.004 51.3902 220.245 50.8687C219.487 50.3235 217.757 50.4183 216.453 51.0583Z" fill="black"/>
<path d="M205.004 55.3488C202.989 58.1459 200.168 63.3844 200.477 63.7163C200.548 63.7874 200.785 63.6926 200.998 63.503C201.211 63.337 201.804 63.2185 202.42 63.2659C203.274 63.3133 203.558 63.2185 204.056 62.7207C204.909 61.8674 204.791 61.0614 203.771 60.9666C203.345 60.9192 202.776 61.014 202.491 61.18C202.017 61.417 202.041 61.3222 202.728 60.0659C203.155 59.2836 204.198 57.6244 205.028 56.3681C205.857 55.1118 206.545 54.0214 206.545 53.9503C206.545 53.4762 205.952 54.0214 205.004 55.3488ZM203.937 61.8674C203.677 62.3652 202.823 62.6733 202.112 62.5311C201.78 62.46 201.851 62.3415 202.515 61.9148C203.606 61.2274 204.293 61.2037 203.937 61.8674Z" fill="black"/>
<path d="M154.04 61.7726C153.258 62.6022 152.642 63.0526 152.31 63.0526C151.859 63.0526 151.788 62.9578 151.907 62.5548C152.025 62.1993 151.978 62.0808 151.765 62.1519C151.196 62.3415 150.959 62.9815 151.291 63.3845C151.717 63.906 152.547 63.8586 153.282 63.2897L153.898 62.7919L154.396 63.2897C154.846 63.74 154.894 63.74 155.842 63.3608C156.837 62.9815 157.027 63.0289 157.311 63.8586C157.454 64.2852 158.805 64.0719 160.203 63.4556C161.507 62.8393 161.602 62.8393 162.028 63.2186C162.455 63.5978 162.574 63.5978 163.498 63.266C164.328 62.9815 164.541 62.9578 164.802 63.2186C165.394 63.8586 168.429 63.2423 168.95 62.3652C169.211 61.9385 170.491 61.3459 170.775 61.5356C170.917 61.6067 170.704 61.9622 170.254 62.3415C169.566 62.9104 169.495 63.0526 169.78 63.3845C170.183 63.8586 170.823 63.8586 171.747 63.3845C172.34 63.0763 172.577 63.0526 173.003 63.2897C173.43 63.503 173.738 63.5267 174.378 63.3134C174.995 63.1 175.374 63.1 175.706 63.266C176.725 63.8112 178.598 63.3371 179.759 62.223L180.352 61.6541L180.281 63.2897L180.186 64.9252L179.214 65.5178C178.669 65.826 177.649 66.6793 176.962 67.3904C175.682 68.7653 175.469 69.4527 175.99 70.472C176.606 71.6335 177.555 71.6335 178.669 70.4957C179.664 69.4527 180.233 68.3149 180.589 66.6082C180.778 65.6127 180.944 65.2808 181.3 65.2334C182.058 65.0912 182.295 64.7119 181.608 64.7119C181.063 64.7119 180.992 64.5934 180.849 63.5978C180.731 62.6734 180.802 62.3415 181.181 61.82C181.703 61.1089 181.798 60.6822 181.418 60.6822C180.992 60.6822 179.901 61.3222 179.427 61.8437C178.906 62.4126 176.843 63.1 176.298 62.8867C175.99 62.7682 175.99 62.6971 176.322 62.1993C176.867 61.3459 176.772 61.2274 175.421 61.18C174.331 61.1563 173.999 61.2511 173.122 61.8911C171.368 63.1711 169.282 63.7874 170.823 62.5548C171.866 61.7489 171.581 60.9193 170.277 60.9193C170.04 60.9193 169.495 61.2037 169.069 61.5593C168.192 62.2941 166.177 63.0526 165.513 62.8867C165.086 62.7682 165.063 62.7208 165.418 62.1993C165.963 61.3459 165.869 61.2274 164.517 61.18C163.617 61.1563 163.071 61.2748 162.668 61.583C161.791 62.223 158.497 63.5741 158.023 63.4793C157.43 63.3608 157.525 62.3415 158.212 61.4171C159.113 60.1844 158.473 60.303 157.24 61.583C156.577 62.2467 155.818 62.863 155.557 62.9341C154.728 63.2186 154.538 62.7208 155.083 61.6778C155.937 59.9711 155.652 60.0185 154.04 61.7726ZM164.589 61.82C164.589 62.0808 163.285 62.8156 162.834 62.8156C162.337 62.8156 162.597 62.223 163.237 61.9148C163.854 61.6067 164.589 61.5593 164.589 61.82ZM175.492 61.82C175.492 62.0808 174.189 62.8156 173.738 62.8156C173.146 62.8156 173.288 62.3889 174.023 62.0096C174.71 61.6067 175.492 61.5119 175.492 61.82ZM179.878 66.7504C179.664 67.983 179.427 68.5045 178.574 69.6423C177.981 70.472 177.721 70.6616 177.199 70.5905C176.678 70.5431 176.535 70.3771 176.488 69.7608C176.44 69.3342 176.535 68.789 176.678 68.5045C176.962 67.983 179.498 65.8971 179.854 65.8971C179.949 65.8971 179.972 66.2764 179.878 66.7504Z" fill="black"/>
<path d="M205.952 61.4407C204.198 63.5029 204.696 64.9963 206.734 63.7637L207.54 63.2659L207.374 63.8111C206.995 64.9963 206.497 65.8496 205.241 67.3193C202.064 71.0408 200.666 76.066 203.036 75.1653C204.15 74.7386 205.383 72.3682 206.781 67.8645C207.493 65.5415 207.587 65.3993 208.749 64.4511C209.436 63.9296 210.384 63.2422 210.859 62.9578C211.783 62.4363 211.996 62.1044 211.427 62.1044C211.119 62.1044 209.982 62.8155 208.488 63.9533L207.706 64.5459L207.967 63.8585C208.109 63.4792 208.488 62.6733 208.82 62.0333C209.484 60.7059 209.484 60.6822 209.104 60.6822C208.939 60.6822 208.583 61.014 208.322 61.417C207.753 62.294 205.857 63.8111 205.573 63.6215C205.288 63.4555 205.904 62.3177 206.805 61.2748C207.327 60.6822 207.445 60.4451 207.184 60.4451C206.971 60.4451 206.426 60.8955 205.952 61.4407ZM205.833 68.9074C204.696 72.3445 203.392 74.6675 202.586 74.6675C202.136 74.6675 202.207 73.9327 202.752 72.4393C203.463 70.5667 205.928 66.8452 206.26 67.1771C206.307 67.2482 206.118 68.0067 205.833 68.9074Z" fill="black"/>
<path d="M182.77 60.9429C182.082 61.3222 181.608 62.5074 181.893 63.0526C182.201 63.6215 183.481 63.6926 184.477 63.1711C185.093 62.8629 185.188 62.8629 185.472 63.1948C185.78 63.5741 186.918 63.5504 187.89 63.1711C188.198 63.0289 188.269 63.1 188.151 63.3844C188.056 63.6452 188.127 63.7637 188.388 63.7637C188.601 63.7637 188.767 63.6689 188.767 63.5266C188.767 63.2185 189.668 62.6496 190.497 62.46C191.066 62.3177 191.137 62.3652 191.137 62.8629C191.137 63.6215 191.991 64.0244 193.057 63.7874C194.456 63.4792 195.926 62.5548 195.594 62.1992C195.523 62.1518 194.883 62.3652 194.148 62.7207C191.967 63.6926 190.948 63.1711 192.204 61.6777C192.536 61.2985 192.797 60.8955 192.797 60.8244C192.797 60.5162 192.204 60.7059 191.754 61.1325C191.469 61.3933 190.948 61.6777 190.592 61.7489C189.976 61.9148 189.928 61.8911 190.094 61.2985C190.26 60.6585 189.857 60.4214 189.644 61.0377C189.383 61.6777 187.534 62.8155 186.752 62.8155C185.828 62.8155 185.638 62.6496 185.946 62.0807C186.278 61.417 185.78 61.5118 184.808 62.2466C184.382 62.5785 183.647 62.9103 183.197 62.9815C182.485 63.1 182.367 63.0526 182.367 62.6496C182.367 62.3889 182.604 61.8911 182.865 61.5355C183.434 60.8244 183.386 60.6111 182.77 60.9429Z" fill="black"/>
<path d="M224.939 61.4408C224.726 61.7252 224.56 62.2704 224.56 62.6497C224.56 63.7163 225.792 63.906 227.309 63.1C227.641 62.9341 227.902 62.9578 228.234 63.1948C228.471 63.3845 228.945 63.5267 229.277 63.5267C230.035 63.503 231.908 62.5785 232.24 62.0571C232.69 61.3222 232.192 61.3459 231.173 62.0808C230.533 62.5548 229.893 62.8156 229.348 62.8156C228.613 62.8156 228.542 62.7682 228.684 62.223C228.874 61.4408 228.424 61.4408 227.594 62.223C227.238 62.5311 226.527 62.863 226.006 62.9578C225.152 63.1 225.034 63.0526 225.034 62.6497C225.034 62.3889 225.247 61.8911 225.532 61.5356C225.911 61.0378 225.935 60.9193 225.65 60.9193C225.461 60.9193 225.129 61.1563 224.939 61.4408Z" fill="black"/>
</svg>
