<svg width="317" height="55" viewBox="0 0 317 55" fill="none" xmlns="http://www.w3.org/2000/svg">
<path d="M316.209 14.873C316.324 16.2789 315.5 17.8334 313.565 19.5216C311.643 21.199 308.715 22.9263 304.856 24.6712C297.144 28.1585 285.831 31.6662 271.735 34.9922C243.55 41.6423 204.326 47.546 160.747 51.1225C117.167 54.699 77.5056 55.2694 48.6136 53.3035C34.1636 52.3203 22.4299 50.704 14.2528 48.5207C10.1612 47.4282 6.99053 46.2014 4.82043 44.8599C2.63642 43.5097 1.56958 42.1105 1.45419 40.7045C1.33881 39.2986 2.16324 37.7441 4.0979 36.0559C6.02024 34.3785 8.94847 32.6513 12.8072 30.9063C20.5189 27.419 31.8321 23.9113 45.9284 20.5853C74.1133 13.9352 113.337 8.03149 156.917 4.455C200.496 0.878508 240.158 0.308139 269.05 2.27404C283.5 3.25726 295.233 4.87352 303.41 7.05686C307.502 8.14935 310.673 9.37608 312.843 10.7176C315.027 12.0678 316.094 13.4671 316.209 14.873Z" stroke="#BBBBBB" stroke-opacity="0.5"/>
</svg>
