<svg width="375" height="87" viewBox="0 0 375 87" fill="none" xmlns="http://www.w3.org/2000/svg">
<path d="M191.717 20.5944C243.297 30.4392 289.484 41.9707 322.461 52.6532C338.953 57.9956 352.122 63.1198 361.006 67.7072C365.451 70.0027 368.796 72.15 370.947 74.106C373.126 76.0888 373.942 77.7483 373.687 79.086C373.432 80.4237 372.062 81.666 369.305 82.7065C366.586 83.733 362.685 84.4974 357.706 84.9942C347.758 85.9871 333.627 85.9007 316.327 84.7933C281.734 82.5791 234.546 76.2882 182.966 66.4434C131.386 56.5986 85.1987 45.0671 52.2219 34.3846C35.7302 29.0422 22.561 23.918 13.6772 19.3306C9.23186 17.0351 5.88675 14.8877 3.7365 12.9317C1.55688 10.949 0.740713 9.2895 0.99604 7.95178C1.25137 6.61405 2.62139 5.3718 5.37805 4.33125C8.09756 3.30473 11.9984 2.54036 16.9767 2.04355C26.9256 1.05069 41.0564 1.13712 58.3564 2.24448C92.9494 4.45872 140.137 10.7495 191.717 20.5944Z" stroke="#BBBBBB" stroke-opacity="0.8"/>
</svg>
