<svg width="371" height="86" viewBox="0 0 371 86" fill="none" xmlns="http://www.w3.org/2000/svg">
<path d="M189.813 19.8036C240.814 29.538 286.478 40.9694 319.075 51.5794C335.377 56.8856 348.393 61.9803 357.17 66.5472C361.562 68.8324 364.866 70.9716 366.988 72.9218C369.138 74.8976 369.944 76.5549 369.688 77.8953C369.432 79.2357 368.073 80.4799 365.346 81.5249C362.655 82.5562 358.796 83.3283 353.87 83.8351C344.028 84.8481 330.051 84.7909 312.941 83.7197C278.727 81.5778 232.063 75.387 181.062 65.6526C130.061 55.9182 84.3976 44.4868 51.8003 33.8768C35.4983 28.5706 22.4828 23.4759 13.7053 18.909C9.31318 16.6238 6.00945 14.4846 3.8872 12.5344C1.73698 10.5586 0.931607 8.90132 1.18745 7.56091C1.44329 6.2205 2.80244 4.97636 5.52924 3.93136C8.22056 2.89997 12.0799 2.12795 17.005 1.62109C26.8475 0.608167 40.8245 0.665348 57.9348 1.73652C92.1484 3.87842 138.812 10.0692 189.813 19.8036Z" stroke="#BBBBBB" stroke-opacity="0.8"/>
</svg>
